<svg xmlns="http://www.w3.org/2000/svg" width="245" height="245" viewBox="0 0 245 245">
  <g id="Grupo_506" data-name="Grupo 506" transform="translate(-582 -447)">
    <g id="icon" transform="translate(582.399 447.395)">
      <circle id="bg" cx="122.5" cy="122.5" r="122.5" transform="translate(-0.399 -0.395)" fill="#f5f9ff"/>
    </g>
    <g id="Grupo_9" data-name="Grupo 9" transform="translate(654.999 499.996)">
      <g id="Grupo_8" data-name="Grupo 8" transform="translate(0)">
        <path id="Caminho_2" data-name="Caminho 2" d="M162.194,28.3,134.7.809A2.741,2.741,0,0,0,132.752,0H75A11.013,11.013,0,0,0,64,11V121a11.013,11.013,0,0,0,11,11h77a11.013,11.013,0,0,0,11-11V30.251A2.741,2.741,0,0,0,162.194,28.3ZM88.751,38.5A8.23,8.23,0,0,1,86,22.507V22a2.75,2.75,0,1,1,5.5,0h2.75a2.75,2.75,0,0,1,0,5.5h-5.5a2.75,2.75,0,1,0,0,5.5A8.23,8.23,0,0,1,91.5,49V49.5a2.75,2.75,0,0,1-5.5,0H83.25a2.75,2.75,0,1,1,0-5.5h5.5a2.75,2.75,0,1,0,0-5.5Zm27.5,77h-33a2.75,2.75,0,1,1,0-5.5h33a2.75,2.75,0,0,1,0,5.5Zm27.5-16.5h-60.5a2.75,2.75,0,1,1,0-5.5h60.5a2.75,2.75,0,1,1,0,5.5Zm0-16.5h-60.5a2.75,2.75,0,1,1,0-5.5h60.5a2.75,2.75,0,1,1,0,5.5Zm0-16.5h-60.5a2.75,2.75,0,1,1,0-5.5h60.5a2.75,2.75,0,1,1,0,5.5Zm0-16.5h-33a2.75,2.75,0,0,1,0-5.5h33a2.75,2.75,0,1,1,0,5.5ZM141,27.5a5.505,5.505,0,0,1-5.5-5.5V9.389L153.614,27.5Z" transform="translate(-64)" fill="#264eee"/>
      </g>
    </g>
  </g>
</svg>
