<svg xmlns="http://www.w3.org/2000/svg" width="23.991" height="26.482" viewBox="0 0 23.991 26.482">
  <g id="Icon_feather-box" data-name="Icon feather-box" transform="translate(-3.462 -1.967)">
    <path id="Caminho_230" data-name="Caminho 230" d="M26.416,20.046v-9.74A2.435,2.435,0,0,0,25.2,8.2l-8.523-4.87a2.435,2.435,0,0,0-2.435,0L5.718,8.2A2.435,2.435,0,0,0,4.5,10.306v9.74a2.435,2.435,0,0,0,1.218,2.106l8.523,4.87a2.435,2.435,0,0,0,2.435,0l8.523-4.87a2.435,2.435,0,0,0,1.218-2.106Z" transform="translate(0 0)" fill="none" stroke="#c5cee0" stroke-linecap="round" stroke-linejoin="round" stroke-width="2"/>
    <path id="Caminho_231" data-name="Caminho 231" d="M4.905,10.44l10.629,6.149L26.163,10.44" transform="translate(-0.076 -1.4)" fill="none" stroke="#c5cee0" stroke-linecap="round" stroke-linejoin="round" stroke-width="2"/>
    <path id="Caminho_232" data-name="Caminho 232" d="M18,30.273V18" transform="translate(-2.542 -2.824)" fill="none" stroke="#c5cee0" stroke-linecap="round" stroke-linejoin="round" stroke-width="2"/>
  </g>
</svg>
