<svg xmlns="http://www.w3.org/2000/svg" width="245" height="245" viewBox="0 0 245 245">
  <g id="Grupo_131" data-name="Grupo 131" transform="translate(-1196 -447)">
    <g id="icon" transform="translate(1196.399 447.395)">
      <circle id="bg" cx="122.5" cy="122.5" r="122.5" transform="translate(-0.399 -0.395)" fill="#f5f9ff"/>
    </g>
    <g id="credit-card" transform="translate(1253.166 456.701)">
      <g id="Grupo_10" data-name="Grupo 10" transform="translate(0 53.1)">
        <path id="Caminho_3" data-name="Caminho 3" d="M141.28,65.384a10.733,10.733,0,0,0-7.349-3.789L32.64,53.138A10.8,10.8,0,0,0,20.978,62.97L18.94,82.089H10.8A10.815,10.815,0,0,0,0,92.892V156.3a10.815,10.815,0,0,0,10.8,10.8H112.447a10.816,10.816,0,0,0,10.8-10.8V146.013l3.607.3q.456.038.907.038a10.818,10.818,0,0,0,10.758-9.9L143.8,73.261a10.734,10.734,0,0,0-2.518-7.876ZM10.8,87.707H112.447a5.191,5.191,0,0,1,5.185,5.185V98.67H5.619V92.892A5.19,5.19,0,0,1,10.8,87.707ZM5.619,104.288H117.632v11.656H5.619Zm106.829,57.195H10.8A5.19,5.19,0,0,1,5.619,156.3V121.562H117.632V156.3a5.191,5.191,0,0,1-5.185,5.185ZM138.2,72.793l-5.276,63.186a5.19,5.19,0,0,1-5.6,4.735l-4.074-.34V92.892a10.816,10.816,0,0,0-10.8-10.8H24.591l1.977-18.553c0-.021,0-.042.006-.064a5.189,5.189,0,0,1,5.6-4.735l101.292,8.458a5.185,5.185,0,0,1,4.735,5.6Z" transform="translate(0 -53.1)" fill="#264eee"/>
        <path id="Caminho_4" data-name="Caminho 4" d="M300.478,326.532H273.44a2.809,2.809,0,0,0-2.809,2.809v17.639a2.809,2.809,0,0,0,2.809,2.809h27.037a2.809,2.809,0,0,0,2.809-2.809V329.341A2.809,2.809,0,0,0,300.478,326.532Zm-2.809,17.639H276.25V332.151h21.419Z" transform="translate(-194.603 -249.717)" fill="#264eee"/>
      </g>
    </g>
  </g>
</svg>
