<svg id="Layer_1" enable-background="new 0 0 512 512" height="512" viewBox="0 0 512 512" width="512" xmlns="http://www.w3.org/2000/svg"><g><path d="m512 136v240c0 30.88-25.12 56-56 56h-400c-30.88 0-56-25.12-56-56v-240c0-30.88 25.12-56 56-56h400c30.88 0 56 25.12 56 56z" fill="#acebe2"/><path d="m512 136v240c0 30.88-25.12 56-56 56h-32c30.88 0 56-25.12 56-56v-240c0-30.88-25.12-56-56-56h32c30.88 0 56 25.12 56 56z" fill="#98d7ce"/><path d="m112 352h-16c-8.836 0-16-7.164-16-16v-16c0-8.836 7.164-16 16-16h16c8.836 0 16 7.164 16 16v16c0 8.836-7.164 16-16 16z" fill="#f8e9d2"/><path d="m0 168h512v32h-512z" fill="#f79caf"/><path d="m480 168h32v32h-32z" fill="#e3889b"/></g></svg>