<svg xmlns="http://www.w3.org/2000/svg" width="25" height="25" viewBox="0 0 25 25">
  <g id="happy" transform="translate(0.085 0.085)">
    <circle id="Elipse_19" data-name="Elipse 19" cx="12.5" cy="12.5" r="12.5" transform="translate(-0.085 -0.085)" fill="#ffd93b"/>
    <path id="Caminho_213" data-name="Caminho 213" d="M78.707,66.344A12.364,12.364,0,0,1,56.72,74.106,12.364,12.364,0,0,0,74.106,56.72,12.35,12.35,0,0,1,78.707,66.344Z" transform="translate(-53.792 -53.792)" fill="#f4c534"/>
    <path id="Caminho_214" data-name="Caminho 214" d="M97.312,313.665a8.7,8.7,0,0,1-16.938-.008.387.387,0,0,1,.487-.464,26.968,26.968,0,0,0,15.964.008A.384.384,0,0,1,97.312,313.665Z" transform="translate(-76.294 -297.863)" fill="#3e4347"/>
    <path id="Caminho_215" data-name="Caminho 215" d="M146.416,390.865c-3.165,0-5.42-.931-4.981,1.27,0,.012.007.022.009.034a8.691,8.691,0,0,0,10.938,0c0-.012.007-.023.009-.035C152.831,389.934,149.582,390.865,146.416,390.865Z" transform="translate(-134.364 -371.614)" fill="#e24b4b"/>
    <path id="Caminho_216" data-name="Caminho 216" d="M93.232,314.192c.467,1.677,3.8,2.97,7.843,2.97s7.35-1.284,7.837-2.953A26.952,26.952,0,0,1,93.232,314.192Z" transform="translate(-88.541 -298.83)" fill="#fff"/>
    <circle id="Elipse_20" data-name="Elipse 20" cx="4.754" cy="4.754" r="4.754" transform="translate(12.955 5.799)" fill="#f4c534"/>
    <path id="Caminho_217" data-name="Caminho 217" d="M286.45,133.829a4.366,4.366,0,0,1-4.3,4.094,3.826,3.826,0,0,1-3.849-4.094,4.379,4.379,0,0,1,4.3-4.1A3.826,3.826,0,0,1,286.45,133.829Z" transform="translate(-264.671 -123.274)" fill="#fff"/>
    <path id="Caminho_218" data-name="Caminho 218" d="M326.673,176.553a1.929,1.929,0,1,1-1.929-1.929A1.922,1.922,0,0,1,326.673,176.553Z" transform="translate(-307.037 -166.001)" fill="#3e4347"/>
    <ellipse id="Elipse_21" data-name="Elipse 21" cx="0.576" cy="0.369" rx="0.576" ry="0.369" transform="translate(18.561 10.512) rotate(-135)" fill="#fff"/>
    <circle id="Elipse_22" data-name="Elipse 22" cx="4.754" cy="4.754" r="4.754" transform="translate(2.64 5.799)" fill="#f4c534"/>
    <path id="Caminho_219" data-name="Caminho 219" d="M64.817,133.829a4.366,4.366,0,0,0,4.3,4.094,3.826,3.826,0,0,0,3.849-4.094,4.379,4.379,0,0,0-4.3-4.1A3.826,3.826,0,0,0,64.817,133.829Z" transform="translate(-61.492 -123.274)" fill="#fff"/>
    <path id="Caminho_220" data-name="Caminho 220" d="M109.312,176.553a1.929,1.929,0,1,0,1.929-1.929A1.922,1.922,0,0,0,109.312,176.553Z" transform="translate(-103.844 -166.001)" fill="#3e4347"/>
    <ellipse id="Elipse_23" data-name="Elipse 23" cx="0.369" cy="0.576" rx="0.369" ry="0.576" transform="translate(6.543 10.514) rotate(-135)" fill="#fff"/>
    <g id="Grupo_450" data-name="Grupo 450" transform="translate(2.532 2.928)">
      <path id="Caminho_221" data-name="Caminho 221" d="M53.677,57.5s-2.512-.353-5.149,2.7C48.528,60.2,50.233,54.734,53.677,57.5Z" transform="translate(-48.528 -56.721)" fill="#3e4347"/>
      <path id="Caminho_222" data-name="Caminho 222" d="M356.848,57.5s2.512-.353,5.149,2.7C362,60.2,360.292,54.734,356.848,57.5Z" transform="translate(-341.958 -56.721)" fill="#3e4347"/>
    </g>
  </g>
</svg>
