<svg xmlns="http://www.w3.org/2000/svg" width="13.5" height="36" viewBox="0 0 13.5 36">
  <path id="Icon_awesome-info" data-name="Icon awesome-info" d="M1.406,29.829H2.813V19.671H1.406A1.406,1.406,0,0,1,0,18.265V14.906A1.406,1.406,0,0,1,1.406,13.5H9.281a1.406,1.406,0,0,1,1.406,1.406V29.829h1.406A1.406,1.406,0,0,1,13.5,31.235v3.359A1.406,1.406,0,0,1,12.094,36H1.406A1.406,1.406,0,0,1,0,34.594V31.235A1.406,1.406,0,0,1,1.406,29.829ZM6.75,0a5.063,5.063,0,1,0,5.063,5.063A5.062,5.062,0,0,0,6.75,0Z" fill="#f1f1f1"/>
</svg>
