<svg xmlns="http://www.w3.org/2000/svg" width="35.473" height="47.287" viewBox="0 0 35.473 47.287">
  <g id="clipboard" transform="translate(-63.958)">
    <g id="Grupo_24" data-name="Grupo 24" transform="translate(78.8 10.85)">
      <g id="Grupo_23" data-name="Grupo 23">
        <g id="Grupo_16" data-name="Grupo 16">
          <g id="Grupo_14" data-name="Grupo 14" transform="translate(0 3.555)">
            <path id="Caminho_6" data-name="Caminho 6" d="M232.872,157.36H225.35a.693.693,0,0,1,0-1.385h7.522a.693.693,0,0,1,0,1.385Z" transform="translate(-224.657 -155.975)" fill="#3157ef"/>
          </g>
          <g id="Grupo_15" data-name="Grupo 15">
            <path id="Caminho_7" data-name="Caminho 7" d="M240.394,118.863H225.35a.693.693,0,1,1,0-1.385h15.044a.693.693,0,0,1,0,1.385Z" transform="translate(-224.657 -117.478)" fill="#3157ef"/>
          </g>
        </g>
        <g id="Grupo_19" data-name="Grupo 19" transform="translate(0 11.608)">
          <g id="Grupo_17" data-name="Grupo 17" transform="translate(0 3.556)">
            <path id="Caminho_8" data-name="Caminho 8" d="M232.872,283.047H225.35a.693.693,0,1,1,0-1.385h7.522a.693.693,0,1,1,0,1.385Z" transform="translate(-224.657 -281.662)" fill="#3157ef"/>
          </g>
          <g id="Grupo_18" data-name="Grupo 18">
            <path id="Caminho_9" data-name="Caminho 9" d="M240.394,244.549H225.35a.693.693,0,1,1,0-1.385h15.044a.693.693,0,0,1,0,1.385Z" transform="translate(-224.657 -243.164)" fill="#3157ef"/>
          </g>
        </g>
        <g id="Grupo_22" data-name="Grupo 22" transform="translate(0 23.216)">
          <g id="Grupo_20" data-name="Grupo 20" transform="translate(0 3.556)">
            <path id="Caminho_10" data-name="Caminho 10" d="M232.872,408.734H225.35a.693.693,0,0,1,0-1.385h7.522a.693.693,0,1,1,0,1.385Z" transform="translate(-224.657 -407.349)" fill="#3157ef"/>
          </g>
          <g id="Grupo_21" data-name="Grupo 21">
            <path id="Caminho_11" data-name="Caminho 11" d="M240.394,370.236H225.35a.693.693,0,1,1,0-1.385h15.044a.693.693,0,1,1,0,1.385Z" transform="translate(-224.657 -368.851)" fill="#3157ef"/>
          </g>
        </g>
      </g>
    </g>
    <g id="Grupo_25" data-name="Grupo 25" transform="translate(73.64 0)">
      <path id="Caminho_12" data-name="Caminho 12" d="M182.834,6.525H170.855A2.067,2.067,0,0,1,168.79,4.46v-2.4A2.067,2.067,0,0,1,170.855,0h11.979A2.067,2.067,0,0,1,184.9,2.065v2.4A2.067,2.067,0,0,1,182.834,6.525Zm-11.979-5.14a.68.68,0,0,0-.68.68v2.4a.68.68,0,0,0,.68.679h11.979a.68.68,0,0,0,.68-.679v-2.4a.68.68,0,0,0-.68-.68Z" transform="translate(-168.79 0)" fill="#3157ef"/>
    </g>
    <g id="Grupo_29" data-name="Grupo 29" transform="translate(68.159 9.921)">
      <g id="Grupo_26" data-name="Grupo 26">
        <path id="Caminho_13" data-name="Caminho 13" d="M114.386,114.222h-3.079a1.862,1.862,0,0,1-1.86-1.86v-3.078a1.862,1.862,0,0,1,1.86-1.86h3.079a1.862,1.862,0,0,1,1.86,1.86v3.079A1.862,1.862,0,0,1,114.386,114.222Zm-3.079-5.412a.475.475,0,0,0-.474.474v3.079a.475.475,0,0,0,.474.474h3.079a.475.475,0,0,0,.474-.474v-3.079a.475.475,0,0,0-.474-.474Z" transform="translate(-109.448 -107.424)" fill="#3157ef"/>
      </g>
      <g id="Grupo_27" data-name="Grupo 27" transform="translate(0 11.608)">
        <path id="Caminho_14" data-name="Caminho 14" d="M114.386,239.908h-3.079a1.862,1.862,0,0,1-1.86-1.86V234.97a1.862,1.862,0,0,1,1.86-1.86h3.079a1.862,1.862,0,0,1,1.86,1.86v3.079A1.862,1.862,0,0,1,114.386,239.908Zm-3.079-5.413a.475.475,0,0,0-.474.474v3.079a.475.475,0,0,0,.474.474h3.079a.475.475,0,0,0,.474-.474V234.97a.475.475,0,0,0-.474-.474Z" transform="translate(-109.448 -233.11)" fill="#3157ef"/>
      </g>
      <g id="Grupo_28" data-name="Grupo 28" transform="translate(0 23.216)">
        <path id="Caminho_15" data-name="Caminho 15" d="M114.386,365.594h-3.079a1.862,1.862,0,0,1-1.86-1.86v-3.078a1.862,1.862,0,0,1,1.86-1.86h3.079a1.862,1.862,0,0,1,1.86,1.86v3.078A1.862,1.862,0,0,1,114.386,365.594Zm-3.079-5.413a.475.475,0,0,0-.474.474v3.078a.475.475,0,0,0,.474.474h3.079a.475.475,0,0,0,.474-.474v-3.078a.475.475,0,0,0-.474-.474Z" transform="translate(-109.448 -358.796)" fill="#3157ef"/>
      </g>
    </g>
    <g id="Grupo_30" data-name="Grupo 30" transform="translate(63.958 2.57)">
      <path id="Caminho_16" data-name="Caminho 16" d="M96.43,72.543H66.959a3,3,0,0,1-3-3V30.827a3,3,0,0,1,3-3H71.11a.693.693,0,1,1,0,1.385H66.959a1.617,1.617,0,0,0-1.615,1.615V69.542a1.617,1.617,0,0,0,1.615,1.615H96.43a1.617,1.617,0,0,0,1.615-1.615V30.827a1.617,1.617,0,0,0-1.615-1.615H92.279a.693.693,0,0,1,0-1.385H96.43a3,3,0,0,1,3,3V69.542A3,3,0,0,1,96.43,72.543Z" transform="translate(-63.958 -27.826)" fill="#3157ef"/>
    </g>
  </g>
</svg>
