<svg id="_1._Icons_Line_add-item-alt" data-name="1. Icons / Line /  add-item-alt" xmlns="http://www.w3.org/2000/svg" width="20" height="20" viewBox="0 0 20 20">
  <path id="shopping-cart" d="M12.5,15a1.667,1.667,0,1,1,1.667-1.667A1.669,1.669,0,0,1,12.5,15Zm0-2.5a.833.833,0,1,0,.833.833A.834.834,0,0,0,12.5,12.5ZM5,15a1.667,1.667,0,1,1,1.667-1.667A1.669,1.669,0,0,1,5,15Zm0-2.5a.833.833,0,1,0,.833.833A.834.834,0,0,0,5,12.5Zm9.583-1.667H5.161A2.076,2.076,0,0,1,3.107,9.092l-.183-1.1,0-.008V7.978L1.9,1.878A1.247,1.247,0,0,0,.67.833H.417A.417.417,0,1,1,.417,0H.672A2.091,2.091,0,0,1,2.714,1.666H16.25a.417.417,0,0,1,.4.531L14.984,8.031a.418.418,0,0,1-.4.3H3.825l.1.623A1.245,1.245,0,0,0,5.161,10h9.422a.417.417,0,1,1,0,.833ZM2.853,2.5l.834,5H14.269l1.428-5Z" transform="translate(1.667 2.5)" fill="#bdc9d3"/>
</svg>
