<svg xmlns="http://www.w3.org/2000/svg" width="255.746" height="158.058" viewBox="0 0 255.746 158.058">
  <g id="Grupo_507" data-name="Grupo 507" transform="translate(-12882 8989)">
    <g id="mastercard" transform="translate(12882 -8989)">
      <rect id="Retângulo_18" data-name="Retângulo 18" width="69.15" height="124.251" transform="translate(93.298 16.903)" fill="#ff5f00"/>
      <path id="Caminho_262" data-name="Caminho 262" d="M97.688,79.029A79.239,79.239,0,0,1,127.763,16.9,79,79,0,1,0,79.029,158.058a78.539,78.539,0,0,0,48.734-16.9A78.911,78.911,0,0,1,97.688,79.029Z" fill="#eb001b"/>
      <path id="Caminho_263" data-name="Caminho 263" d="M255.746,79.029a78.945,78.945,0,0,1-127.763,62.125,79.2,79.2,0,0,0,0-124.251A78.945,78.945,0,0,1,255.746,79.029Z" fill="#f79e1b"/>
    </g>
  </g>
</svg>
