<svg xmlns="http://www.w3.org/2000/svg" width="19.206" height="19.145" viewBox="0 0 19.206 19.145">
  <path id="tool" d="M13.837,5.933a.907.907,0,0,0,0,1.281l1.482,1.463a.935.935,0,0,0,1.3,0l3.492-3.448a5.437,5.437,0,0,1-1.133,6.143,6.435,6.435,0,0,1-.9.723,5.482,5.482,0,0,1-5.317.4l-6.4,6.32a1.983,1.983,0,0,1-2.779,0,1.923,1.923,0,0,1,0-2.744l6.4-6.32A5.437,5.437,0,0,1,11.108,3.6a5.61,5.61,0,0,1,6.221-1.119L13.846,5.924Z" transform="translate(-2.249 -1.146)" fill="none" stroke="#79869f" stroke-linecap="round" stroke-linejoin="round" stroke-width="1.5"/>
</svg>
