<svg xmlns="http://www.w3.org/2000/svg" width="21.841" height="18.185" viewBox="0 0 21.841 18.185">
  <g id="Icon_feather-users" data-name="Icon feather-users" transform="translate(0.75 0.792)">
    <path id="Caminho_136" data-name="Caminho 136" d="M16.294,28.048V26.2a3.7,3.7,0,0,0-3.7-3.7H5.2a3.7,3.7,0,0,0-3.7,3.7v1.849" transform="translate(-1.5 -11.405)" fill="none" stroke="#79869f" stroke-linecap="round" stroke-linejoin="round" stroke-width="1.5"/>
    <path id="Caminho_137" data-name="Caminho 137" d="M14.9,8.2a3.7,3.7,0,1,1-3.7-3.7A3.7,3.7,0,0,1,14.9,8.2Z" transform="translate(-3.802 -4.5)" fill="none" stroke="#79869f" stroke-linecap="round" stroke-linejoin="round" stroke-width="1.5"/>
    <path id="Caminho_138" data-name="Caminho 138" d="M32.774,28.122V26.273A3.7,3.7,0,0,0,30,22.7" transform="translate(-12.433 -11.48)" fill="none" stroke="#79869f" stroke-linecap="round" stroke-linejoin="round" stroke-width="1.5"/>
    <path id="Caminho_139" data-name="Caminho 139" d="M24,4.695a3.7,3.7,0,0,1,0,7.166" transform="translate(-10.131 -4.575)" fill="none" stroke="#79869f" stroke-linecap="round" stroke-linejoin="round" stroke-width="1.5"/>
  </g>
</svg>
