<svg xmlns="http://www.w3.org/2000/svg" width="17.854" height="17.854" viewBox="0 0 17.854 17.854">
  <path id="Icon_feather-message-circle" data-name="Icon feather-message-circle" d="M20.854,12.223a7.614,7.614,0,0,1-.818,3.452,7.723,7.723,0,0,1-6.9,4.27,7.614,7.614,0,0,1-3.452-.818L4.5,20.854l1.726-5.179a7.614,7.614,0,0,1-.818-3.452,7.723,7.723,0,0,1,4.27-6.9A7.614,7.614,0,0,1,13.131,4.5h.454a7.7,7.7,0,0,1,7.268,7.268Z" transform="translate(-3.75 -3.75)" fill="none" stroke="#79869f" stroke-linecap="round" stroke-linejoin="round" stroke-width="1.5"/>
</svg>
