<svg xmlns="http://www.w3.org/2000/svg" width="16.5" height="16.5" viewBox="0 0 16.5 16.5">
  <g id="dashboard_1_copy" data-name="dashboard 1 copy" transform="translate(0.75 0.75)">
    <g id="Group_264" data-name="Group 264">
      <path id="Vector" d="M2.17,0H3.83A2.17,2.17,0,0,1,6,2.17V3.83A2.17,2.17,0,0,1,3.83,6H2.17A2.17,2.17,0,0,1,0,3.83V2.17A2.17,2.17,0,0,1,2.17,0Z" fill="none" stroke="#fff" stroke-linecap="round" stroke-linejoin="round" stroke-width="1.5"/>
      <path id="Vector-2" data-name="Vector" d="M2.17,0H3.83A2.17,2.17,0,0,1,6,2.17V3.83A2.17,2.17,0,0,1,3.83,6H2.17A2.17,2.17,0,0,1,0,3.83V2.17A2.17,2.17,0,0,1,2.17,0Z" transform="translate(0 9)" fill="none" stroke="#fff" stroke-linecap="round" stroke-linejoin="round" stroke-width="1.5"/>
      <path id="Vector-3" data-name="Vector" d="M2.17,0H3.83A2.17,2.17,0,0,1,6,2.17V3.83A2.17,2.17,0,0,1,3.83,6H2.17A2.17,2.17,0,0,1,0,3.83V2.17A2.17,2.17,0,0,1,2.17,0Z" transform="translate(9)" fill="none" stroke="#fff" stroke-linecap="round" stroke-linejoin="round" stroke-width="1.5"/>
      <path id="Vector-4" data-name="Vector" d="M2.17,0H3.83A2.17,2.17,0,0,1,6,2.17V3.83A2.17,2.17,0,0,1,3.83,6H2.17A2.17,2.17,0,0,1,0,3.83V2.17A2.17,2.17,0,0,1,2.17,0Z" transform="translate(9 9)" fill="none" stroke="#fff" stroke-linecap="round" stroke-linejoin="round" stroke-width="1.5"/>
    </g>
  </g>
</svg>
