<svg xmlns="http://www.w3.org/2000/svg" width="34.771" height="30.072" viewBox="0 0 34.771 30.072">
  <path id="Icon_awesome-signal" data-name="Icon awesome-signal" d="M12.964,16.915H10.145a.939.939,0,0,0-.94.94V29.132a.939.939,0,0,0,.94.94h2.819a.939.939,0,0,0,.94-.94V17.855A.939.939,0,0,0,12.964,16.915ZM5.446,22.554H2.627a.939.939,0,0,0-.94.94v5.638a.939.939,0,0,0,.94.94H5.446a.939.939,0,0,0,.94-.94V23.494A.939.939,0,0,0,5.446,22.554ZM20.482,11.277H17.663a.939.939,0,0,0-.94.94V29.132a.939.939,0,0,0,.94.94h2.819a.939.939,0,0,0,.94-.94V12.217A.939.939,0,0,0,20.482,11.277ZM28,5.638H25.181a.939.939,0,0,0-.94.94V29.132a.939.939,0,0,0,.94.94H28a.939.939,0,0,0,.94-.94V6.578A.939.939,0,0,0,28,5.638ZM35.518,0H32.7a.939.939,0,0,0-.94.94V29.132a.939.939,0,0,0,.94.94h2.819a.939.939,0,0,0,.94-.94V.94A.939.939,0,0,0,35.518,0Z" transform="translate(-1.688)" fill="#fff"/>
</svg>
